<svg xmlns="http://www.w3.org/2000/svg" viewBox="0 0 2200 2400" width="100%" height="100%">
  <defs>
    <!-- Inheritance: Hollow Triangle -->
    <marker id="inher" viewBox="0 0 16 16" refX="15" refY="8" markerWidth="13" markerHeight="13" orient="auto">
      <polygon points="1,2 15,8 1,14" fill="#ffffff" stroke="#0f172a" stroke-width="1.8"/>
    </marker>
    <!-- Composition: Filled Diamond -->
    <marker id="comp" viewBox="0 0 16 10" refX="1" refY="5" markerWidth="14" markerHeight="8" orient="auto">
      <polygon points="0,5 7,1 14,5 7,9" fill="#0f172a" stroke="#0f172a" stroke-width="1.2"/>
    </marker>
    <!-- Aggregation: Hollow Diamond -->
    <marker id="aggr" viewBox="0 0 16 10" refX="1" refY="5" markerWidth="14" markerHeight="8" orient="auto">
      <polygon points="0,5 7,1 14,5 7,9" fill="#ffffff" stroke="#0f172a" stroke-width="1.6"/>
    </marker>
    
    <style>
      text { font-family: 'Segoe UI', -apple-system, BlinkMacSystemFont, Arial, sans-serif; }
      .box { fill: #ffffff; stroke: #0f172a; stroke-width: 1.8; rx: 3; }
      .hdr { fill: #f1f5f9; stroke: #0f172a; stroke-width: 1.8; }
      .div { stroke: #cbd5e1; stroke-width: 1.2; }
      .ttl { font-size: 14px; font-weight: 700; fill: #0f172a; text-anchor: middle; }
      .atr { font-size: 11px; fill: #334155; font-family: 'Consolas', monospace; }
      .mth { font-size: 10.5px; fill: #0369a1; font-family: 'Consolas', monospace; font-weight: 500; }
      .ln  { stroke: #334155; stroke-width: 1.6; fill: none; stroke-linecap: round; stroke-linejoin: round; }
      .mul { font-size: 12px; font-weight: 700; fill: #0f172a; }
      .lbl { font-size: 10.5px; fill: #64748b; font-style: italic; }
    </style>
  </defs>

  <!-- PURE SOLID WHITE BACKGROUND -->
  <rect width="100%" height="100%" fill="#ffffff"/>

  <!-- ================================================================ -->
  <!-- 19 ENTITY BOXES WITH USER'S EXACT METHODS                        -->
  <!-- ================================================================ -->

  <!-- 1. USER: center (950, 90) w=300 h=240 -->
  <g transform="translate(950, 90)">
    <rect width="300" height="240" class="box"/>
    <rect width="300" height="28" class="hdr"/>
    <text x="150" y="19" class="ttl">User</text>
    <line x1="0" y1="28" x2="300" y2="28" class="div"/>
    <text x="12" y="45" class="atr">- userId: Integer</text>
    <text x="12" y="60" class="atr">- emri: String</text>
    <text x="12" y="75" class="atr">- mbiemri: String</text>
    <text x="12" y="90" class="atr">- email: String</text>
    <text x="12" y="105" class="atr">- password: String</text>
    <text x="12" y="120" class="atr">- createdAt: LocalDate</text>
    <text x="12" y="135" class="atr">- status: String</text>
    <text x="12" y="150" class="atr">- codeCreatedAt: LocalDateTime</text>
    <text x="12" y="165" class="atr">- verificationCode: String</text>
    <text x="12" y="180" class="atr">- verified: String</text>
    <line x1="0" y1="188" x2="300" y2="188" class="div"/>
    <text x="12" y="205" class="mth">+ login(email, password): boolean</text>
    <text x="12" y="220" class="mth">+ register(): void</text>
    <text x="12" y="235" class="mth">+ verifyCode(code): boolean</text>
  </g>

  <!-- 2. PROFESSOR: top-left (450, 110) w=300 h=205 -->
  <g transform="translate(450, 110)">
    <rect width="300" height="205" class="box"/>
    <rect width="300" height="28" class="hdr"/>
    <text x="150" y="19" class="ttl">Professor</text>
    <line x1="0" y1="28" x2="300" y2="28" class="div"/>
    <text x="12" y="46" class="atr">- professorId: Integer</text>
    <text x="12" y="62" class="atr">- userId: Integer</text>
    <text x="12" y="78" class="atr">- departmentId: Integer</text>
    <text x="12" y="94" class="atr">- status: String</text>
    <line x1="0" y1="104" x2="300" y2="104" class="div"/>
    <text x="12" y="122" class="mth">+ enterGrades(courseId, entries): void</text>
    <text x="12" y="139" class="mth">+ recordAttendance(teachingCourseId,</text>
    <text x="12" y="154" class="mth">  attendanceList): boolean</text>
    <text x="12" y="172" class="mth">+ getTeachingCourses():</text>
    <text x="12" y="187" class="mth">  List&lt;TeachingCourse&gt;</text>
  </g>

  <!-- 3. STUDENT: top-right (1470, 100) w=300 h=245 -->
  <g transform="translate(1470, 100)">
    <rect width="300" height="245" class="box"/>
    <rect width="300" height="28" class="hdr"/>
    <text x="150" y="19" class="ttl">Student</text>
    <line x1="0" y1="28" x2="300" y2="28" class="div"/>
    <text x="12" y="46" class="atr">- studentId: Integer</text>
    <text x="12" y="62" class="atr">- userId: Integer</text>
    <text x="12" y="78" class="atr">- programId: Integer</text>
    <text x="12" y="94" class="atr">- classId: Integer</text>
    <text x="12" y="110" class="atr">- nrMatrikullimit: String</text>
    <text x="12" y="126" class="atr">- vitStudimit: Integer</text>
    <text x="12" y="142" class="atr">- totalKredite: Integer</text>
    <text x="12" y="158" class="atr">- status: String</text>
    <line x1="0" y1="168" x2="300" y2="168" class="div"/>
    <text x="12" y="188" class="mth">+ getGrades(): List&lt;Grade&gt;</text>
    <text x="12" y="205" class="mth">+ getAttendance(): List&lt;Attendance&gt;</text>
    <text x="12" y="222" class="mth">+ requestImprovement(gradeId): boolean</text>
  </g>

  <!-- 4. PROFESSOR PRE-ENROLLMENT: (70, 390) w=280 h=160 -->
  <g transform="translate(70, 390)">
    <rect width="280" height="160" class="box"/>
    <rect width="280" height="28" class="hdr"/>
    <text x="140" y="19" class="ttl">ProfessorPreEnrollment</text>
    <line x1="0" y1="28" x2="280" y2="28" class="div"/>
    <text x="12" y="46" class="atr">- preEnrollmentId: Integer</text>
    <text x="12" y="62" class="atr">- emri: String</text>
    <text x="12" y="78" class="atr">- mbiemri: String</text>
    <text x="12" y="94" class="atr">- email: String</text>
    <text x="12" y="110" class="atr">- departmentId: Integer</text>
    <line x1="0" y1="120" x2="280" y2="120" class="div"/>
    <text x="12" y="142" class="mth">+ validatePreEnrollment(email): boolean</text>
  </g>

  <!-- 5. DEPARTMENT: center-top (960, 400) w=280 h=155 -->
  <g transform="translate(960, 400)">
    <rect width="280" height="155" class="box"/>
    <rect width="280" height="28" class="hdr"/>
    <text x="140" y="19" class="ttl">Department</text>
    <line x1="0" y1="28" x2="280" y2="28" class="div"/>
    <text x="12" y="46" class="atr">- departmentId: Integer</text>
    <text x="12" y="62" class="atr">- emerDepartamenti: String</text>
    <text x="12" y="78" class="atr">- headUserId: Integer</text>
    <line x1="0" y1="88" x2="280" y2="88" class="div"/>
    <text x="12" y="106" class="mth">+ getAllDepartments(): List&lt;Department&gt;</text>
    <text x="12" y="123" class="mth">+ getDepartmentById(id): Department</text>
    <text x="12" y="140" class="mth">+ getHeadOfDepartment(): User</text>
  </g>

  <!-- 6. STUDENT PRE-ENROLLMENT: (1820, 380) w=320 h=240 -->
  <g transform="translate(1820, 380)">
    <rect width="320" height="240" class="box"/>
    <rect width="320" height="28" class="hdr"/>
    <text x="160" y="19" class="ttl">StudentPreEnrollment</text>
    <line x1="0" y1="28" x2="320" y2="28" class="div"/>
    <text x="12" y="46" class="atr">- enrollmentId: Integer</text>
    <text x="12" y="62" class="atr">- emri: String</text>
    <text x="12" y="78" class="atr">- mbiemri: String</text>
    <text x="12" y="94" class="atr">- email: String</text>
    <text x="12" y="110" class="atr">- nrMatrikullimit: String</text>
    <text x="12" y="126" class="atr">- programId: Integer</text>
    <text x="12" y="142" class="atr">- vitStudimit: Integer</text>
    <text x="12" y="158" class="atr">- classId: Integer</text>
    <line x1="0" y1="168" x2="320" y2="168" class="div"/>
    <text x="12" y="186" class="mth">+ validatePreEnrollment(nrMatrikulimit,</text>
    <text x="12" y="201" class="mth">  email): boolean</text>
    <text x="12" y="219" class="mth">+ deleteStudentPreEnrollment(enrollmentId):</text>
    <text x="12" y="233" class="mth">  void</text>
  </g>

  <!-- 7. COURSE: mid-left (450, 680) w=280 h=215 -->
  <g transform="translate(450, 680)">
    <rect width="280" height="215" class="box"/>
    <rect width="280" height="28" class="hdr"/>
    <text x="140" y="19" class="ttl">Course</text>
    <line x1="0" y1="28" x2="280" y2="28" class="div"/>
    <text x="12" y="46" class="atr">- courseId: Integer</text>
    <text x="12" y="62" class="atr">- programId: Integer</text>
    <text x="12" y="78" class="atr">- emriCourse: String</text>
    <text x="12" y="94" class="atr">- kredite: Integer</text>
    <text x="12" y="110" class="atr">- vitStudimit: Integer</text>
    <text x="12" y="126" class="atr">- status: String</text>
    <line x1="0" y1="136" x2="280" y2="136" class="div"/>
    <text x="12" y="154" class="mth">+ createCourse(request): Course</text>
    <text x="12" y="170" class="mth">+ updateCourse(id, request): Course</text>
    <text x="12" y="186" class="mth">+ deleteCourse(id): void</text>
    <text x="12" y="202" class="mth">+ getAllCourses(): List&lt;Course&gt;</text>
  </g>

  <!-- 8. PROGRAM: center-mid (960, 690) w=280 h=175 -->
  <g transform="translate(960, 690)">
    <rect width="280" height="175" class="box"/>
    <rect width="280" height="28" class="hdr"/>
    <text x="140" y="19" class="ttl">Program</text>
    <line x1="0" y1="28" x2="280" y2="28" class="div"/>
    <text x="12" y="46" class="atr">- programId: Integer</text>
    <text x="12" y="62" class="atr">- departmentId: Integer</text>
    <text x="12" y="78" class="atr">- nivel: String</text>
    <text x="12" y="94" class="atr">- kohezgjatja: Integer</text>
    <text x="12" y="110" class="atr">- specializimi: String</text>
    <line x1="0" y1="120" x2="280" y2="120" class="div"/>
    <text x="12" y="138" class="mth">+ getAllPrograms(): List&lt;Program&gt;</text>
    <text x="12" y="155" class="mth">+ getProgramsByDept(deptId): List&lt;Program&gt;</text>
  </g>

  <!-- 9. ROOM: mid-right (1820, 930) w=300 h=165 -->
  <g transform="translate(1820, 930)">
    <rect width="300" height="165" class="box"/>
    <rect width="300" height="28" class="hdr"/>
    <text x="150" y="19" class="ttl">Room</text>
    <line x1="0" y1="28" x2="300" y2="28" class="div"/>
    <text x="12" y="46" class="atr">- roomId: Integer</text>
    <text x="12" y="62" class="atr">- roomName: String</text>
    <text x="12" y="78" class="atr">- capacity: Integer</text>
    <line x1="0" y1="88" x2="300" y2="88" class="div"/>
    <text x="12" y="106" class="mth">+ checkRoomAvailability(roomId,</text>
    <text x="12" y="121" class="mth">  dayOfWeek, startTime, endTime): boolean</text>
    <text x="12" y="139" class="mth">+ getAllRooms(): List&lt;Room&gt;</text>
    <text x="12" y="156" class="mth">+ getCapacity(): Integer</text>
  </g>

  <!-- 10. TOPIC: (70, 1010) w=280 h=160 -->
  <g transform="translate(70, 1010)">
    <rect width="280" height="160" class="box"/>
    <rect width="280" height="28" class="hdr"/>
    <text x="140" y="19" class="ttl">Topic</text>
    <line x1="0" y1="28" x2="280" y2="28" class="div"/>
    <text x="12" y="46" class="atr">- topicId: Integer</text>
    <text x="12" y="62" class="atr">- teachingCourseId: Integer</text>
    <text x="12" y="78" class="atr">- title: String</text>
    <text x="12" y="94" class="atr">- description: String</text>
    <text x="12" y="110" class="atr">- weekNumber: Integer</text>
    <text x="12" y="126" class="atr">- topicDate: LocalDate</text>
    <line x1="0" y1="136" x2="280" y2="136" class="div"/>
    <text x="12" y="152" class="mth">+ getTopics(teachingCourseId): List&lt;Topic&gt;</text>
  </g>

  <!-- 11. CLASSES: center (960, 1020) w=280 h=160 -->
  <g transform="translate(960, 1020)">
    <rect width="280" height="160" class="box"/>
    <rect width="280" height="28" class="hdr"/>
    <text x="140" y="19" class="ttl">Classes</text>
    <line x1="0" y1="28" x2="280" y2="28" class="div"/>
    <text x="12" y="46" class="atr">- classId: Integer</text>
    <text x="12" y="62" class="atr">- vitStudimit: Integer</text>
    <text x="12" y="78" class="atr">- programId: Integer</text>
    <text x="12" y="94" class="atr">- emriClass: String</text>
    <line x1="0" y1="104" x2="280" y2="104" class="div"/>
    <text x="12" y="122" class="mth">+ getClasses(programId, studyYear): List</text>
    <text x="12" y="139" class="mth">+ createClass(name, programId, studyYear)</text>
    <text x="12" y="156" class="mth">+ getClassesByProgram(programId): List</text>
  </g>

  <!-- 12. COURSE SCHEDULE: (450, 1330) w=280 h=215 -->
  <g transform="translate(450, 1330)">
    <rect width="280" height="215" class="box"/>
    <rect width="280" height="28" class="hdr"/>
    <text x="140" y="19" class="ttl">CourseSchedule</text>
    <line x1="0" y1="28" x2="280" y2="28" class="div"/>
    <text x="12" y="46" class="atr">- scheduleId: Integer</text>
    <text x="12" y="62" class="atr">- teachingCourseId: Integer</text>
    <text x="12" y="78" class="atr">- classId: Integer</text>
    <text x="12" y="94" class="atr">- roomId: Integer</text>
    <text x="12" y="110" class="atr">- dayOfWeek: String</text>
    <text x="12" y="126" class="atr">- startTime: String</text>
    <text x="12" y="142" class="atr">- endTime: String</text>
    <text x="12" y="158" class="atr">- academicYear: String</text>
    <line x1="0" y1="168" x2="280" y2="168" class="div"/>
    <text x="12" y="186" class="mth">+ saveSchedule(teachingCourseId,</text>
    <text x="12" y="199" class="mth">  classId, roomId, dayOfWeek): CS</text>
    <text x="12" y="213" class="mth">+ getSchedules(programId, studyYear): List</text>
  </g>

  <!-- 13. TEACHING COURSE: center (920, 1310) w=360 h=250 -->
  <g transform="translate(920, 1310)">
    <rect width="360" height="250" class="box"/>
    <rect width="360" height="28" class="hdr"/>
    <text x="180" y="19" class="ttl">TeachingCourse</text>
    <line x1="0" y1="28" x2="360" y2="28" class="div"/>
    <text x="12" y="46" class="atr">- teachingCourseId: Integer</text>
    <text x="12" y="62" class="atr">- courseId: Integer</text>
    <text x="12" y="78" class="atr">- professorId: Integer</text>
    <text x="12" y="94" class="atr">- durationWeeks: Integer</text>
    <text x="12" y="110" class="atr">- roleType: String</text>
    <text x="12" y="126" class="atr">- semester: String</text>
    <text x="12" y="142" class="atr">- totalHours: Integer</text>
    <line x1="0" y1="152" x2="360" y2="152" class="div"/>
    <text x="12" y="170" class="mth">+ assignLectureProfessor(courseId, professorId): TC</text>
    <text x="12" y="186" class="mth">+ assignSeminarProfessor(courseId, professorId): TC</text>
    <text x="12" y="202" class="mth">+ assignLabProfessor(courseId, professorId): TC</text>
  </g>

  <!-- 14. EXAM SEASON: (70, 1680) w=280 h=160 -->
  <g transform="translate(70, 1680)">
    <rect width="280" height="160" class="box"/>
    <rect width="280" height="28" class="hdr"/>
    <text x="140" y="19" class="ttl">ExamSeason</text>
    <line x1="0" y1="28" x2="280" y2="28" class="div"/>
    <text x="12" y="46" class="atr">- seasonId: Integer</text>
    <text x="12" y="62" class="atr">- academicYear: String</text>
    <text x="12" y="78" class="atr">- seasonType: String</text>
    <text x="12" y="94" class="atr">- programId: Integer</text>
    <text x="12" y="110" class="atr">- startDate: LocalDate</text>
    <text x="12" y="126" class="atr">- endDate: LocalDate</text>
    <line x1="0" y1="136" x2="280" y2="136" class="div"/>
    <text x="12" y="152" class="mth">+ saveSeasonDates(startDate, endDate): ExamSeason</text>
  </g>

  <!-- 15. EXAM ATTENDANCE: (450, 1690) w=280 h=175 -->
  <g transform="translate(450, 1690)">
    <rect width="280" height="175" class="box"/>
    <rect width="280" height="28" class="hdr"/>
    <text x="140" y="19" class="ttl">ExamAttendance</text>
    <line x1="0" y1="28" x2="280" y2="28" class="div"/>
    <text x="12" y="46" class="atr">- examAttendanceId: Integer</text>
    <text x="12" y="62" class="atr">- examId: Integer</text>
    <text x="12" y="78" class="atr">- studentId: Integer</text>
    <text x="12" y="94" class="atr">- status: String</text>
    <line x1="0" y1="104" x2="280" y2="104" class="div"/>
    <text x="12" y="122" class="mth">+ saveExamAttendance(examId,</text>
    <text x="12" y="137" class="mth">  studentId, status): ExamAttendance</text>
    <text x="12" y="155" class="mth">+ getAttendanceByExam(examId):</text>
    <text x="12" y="169" class="mth">  List&lt;ExamAttendance&gt;</text>
  </g>

  <!-- 16. GRADE: (1470, 1670) w=300 h=190 -->
  <g transform="translate(1470, 1670)">
    <rect width="300" height="190" class="box"/>
    <rect width="300" height="28" class="hdr"/>
    <text x="150" y="19" class="ttl">Grade</text>
    <line x1="0" y1="28" x2="300" y2="28" class="div"/>
    <text x="12" y="46" class="atr">- gradeId: Integer</text>
    <text x="12" y="62" class="atr">- studentId: Integer</text>
    <text x="12" y="78" class="atr">- teachingCourseId: Integer</text>
    <text x="12" y="94" class="atr">- grade: Double</text>
    <text x="12" y="110" class="atr">- status: String</text>
    <text x="12" y="126" class="atr">- dateGiven: LocalDate</text>
    <line x1="0" y1="136" x2="300" y2="136" class="div"/>
    <text x="12" y="154" class="mth">+ saveGrade(studentId, teachingCourseId,</text>
    <text x="12" y="169" class="mth">  gradeValue): Grade</text>
    <text x="12" y="185" class="mth">+ getGradesByStudent(studentId): List&lt;Grade&gt;</text>
  </g>

  <!-- 17. EXAM SCHEDULE: (450, 1990) w=280 h=190 -->
  <g transform="translate(450, 1990)">
    <rect width="280" height="190" class="box"/>
    <rect width="280" height="28" class="hdr"/>
    <text x="140" y="19" class="ttl">ExamSchedule</text>
    <line x1="0" y1="28" x2="280" y2="28" class="div"/>
    <text x="12" y="46" class="atr">- examId: Integer</text>
    <text x="12" y="62" class="atr">- courseId: Integer</text>
    <text x="12" y="78" class="atr">- examDate: LocalDateTime</text>
    <text x="12" y="94" class="atr">- endTime: String</text>
    <text x="12" y="110" class="atr">- maxStudents: Integer</text>
    <text x="12" y="126" class="atr">- type: String</text>
    <line x1="0" y1="136" x2="280" y2="136" class="div"/>
    <text x="12" y="154" class="mth">+ saveExam(courseId, examDate,</text>
    <text x="12" y="169" class="mth">  roomIds): ExamSchedule</text>
    <text x="12" y="185" class="mth">+ deleteExam(examId): void</text>
  </g>

  <!-- 18. ATTENDANCE: (960, 1990) w=280 h=170 -->
  <g transform="translate(960, 1990)">
    <rect width="280" height="170" class="box"/>
    <rect width="280" height="28" class="hdr"/>
    <text x="140" y="19" class="ttl">Attendance</text>
    <line x1="0" y1="28" x2="280" y2="28" class="div"/>
    <text x="12" y="46" class="atr">- attendanceId: Integer</text>
    <text x="12" y="62" class="atr">- studentId: Integer</text>
    <text x="12" y="78" class="atr">- teachingCourseId: Integer</text>
    <text x="12" y="94" class="atr">- dataAttendance: LocalDate</text>
    <text x="12" y="110" class="atr">- status: Integer</text>
    <line x1="0" y1="120" x2="280" y2="120" class="div"/>
    <text x="12" y="140" class="mth">+ saveAttendance(studentId,</text>
    <text x="12" y="155" class="mth">  teachingCourseId, date, status): Attendance</text>
  </g>

  <!-- 19. FAILED COURSE: (1470, 1990) w=300 h=165 -->
  <g transform="translate(1470, 1990)">
    <rect width="300" height="165" class="box"/>
    <rect width="300" height="28" class="hdr"/>
    <text x="150" y="19" class="ttl">FailedCourse</text>
    <line x1="0" y1="28" x2="300" y2="28" class="div"/>
    <text x="12" y="46" class="atr">- failedId: Integer</text>
    <text x="12" y="62" class="atr">- studentId: Integer</text>
    <text x="12" y="78" class="atr">- teachingCourseId: Integer</text>
    <text x="12" y="94" class="atr">- dateRecorded: LocalDate</text>
    <text x="12" y="110" class="atr">- status: String</text>
    <line x1="0" y1="120" x2="300" y2="120" class="div"/>
    <text x="12" y="140" class="mth">+ getFailedCoursesByStudent(studentId):</text>
    <text x="12" y="155" class="mth">  List&lt;FailedCourse&gt;</text>
  </g>


  <!-- ================================================================ -->
  <!-- CONNECTION LINES (ORTHOGONAL, PERFECT ALIGNMENT)                 -->
  <!-- ================================================================ -->

  <!-- 1. Professor -▷ User (Inheritance) -->
  <path d="M 750,170 L 950,170" class="ln" marker-end="url(#inher)"/>

  <!-- 2. Student -▷ User (Inheritance) -->
  <path d="M 1470,170 L 1250,170" class="ln" marker-end="url(#inher)"/>

  <!-- 3. User (1) - Department (0..1) [headUser] -->
  <path d="M 1100,330 L 1100,400" class="ln"/>
  <text x="1108" y="350" class="mul">1</text>
  <text x="1108" y="390" class="mul">0..1</text>
  <text x="1108" y="370" class="lbl">headUser</text>

  <!-- 4. Professor (0..*) - Department (0..1) -->
  <path d="M 600,315 L 600,450 L 960,450" class="ln"/>
  <text x="608" y="335" class="mul">0..*</text>
  <text x="925" y="442" class="mul">0..1</text>

  <!-- 5. ProfessorPreEnrollment (0..*) - Department (1) -->
  <path d="M 350,490 L 960,490" class="ln"/>
  <text x="360" y="482" class="mul">0..*</text>
  <text x="930" y="482" class="mul">1</text>

  <!-- 6. Student (0..*) - Department (0..1) -->
  <path d="M 1520,345 L 1520,450 L 1240,450" class="ln"/>
  <text x="1528" y="365" class="mul">0..*</text>
  <text x="1255" y="442" class="mul">0..1</text>

  <!-- 7. Department (1) ◇- Program (0..*) [Aggregation] -->
  <path d="M 1100,555 L 1100,690" class="ln" marker-start="url(#aggr)"/>
  <text x="1108" y="580" class="mul">1</text>
  <text x="1108" y="680" class="mul">0..*</text>

  <!-- 8. Department (0..*) - Course (0..*) [Many-to-Many] -->
  <path d="M 960,520 L 800,520 L 800,740 L 730,740" class="ln"/>
  <text x="925" y="512" class="mul">0..*</text>
  <text x="740" y="732" class="mul">0..*</text>

  <!-- 9. Student (0..*) - Program (1) -->
  <path d="M 1560,345 L 1560,740 L 1240,740" class="ln"/>
  <text x="1568" y="370" class="mul">0..*</text>
  <text x="1255" y="732" class="mul">1</text>

  <!-- 10. StudentPreEnrollment (0..*) - Program (0..1) -->
  <path d="M 1820,460 L 1760,460 L 1760,780 L 1240,780" class="ln"/>
  <text x="1780" y="452" class="mul">0..*</text>
  <text x="1255" y="772" class="mul">0..1</text>

  <!-- 11. Program (1) - Course (0..*) -->
  <path d="M 960,770 L 730,770" class="ln"/>
  <text x="930" y="762" class="mul">1</text>
  <text x="740" y="762" class="mul">0..*</text>

  <!-- 12. Program (1) ◆- Classes (0..*) [Composition] -->
  <path d="M 1100,865 L 1100,1020" class="ln" marker-start="url(#comp)"/>
  <text x="1108" y="890" class="mul">1</text>
  <text x="1108" y="1010" class="mul">0..*</text>

  <!-- 13. Student (0..*) - Classes (0..1) -->
  <path d="M 1600,345 L 1600,1060 L 1240,1060" class="ln"/>
  <text x="1608" y="370" class="mul">0..*</text>
  <text x="1255" y="1052" class="mul">0..1</text>

  <!-- 14. StudentPreEnrollment (0..*) - Classes (0..1) -->
  <path d="M 1820,520 L 1730,520 L 1730,1100 L 1240,1100" class="ln"/>
  <text x="1780" y="512" class="mul">0..*</text>
  <text x="1255" y="1092" class="mul">0..1</text>

  <!-- 15. Program (1) - ExamSeason (0..*) -->
  <path d="M 960,810 L 380,810 L 380,1720 L 350,1720" class="ln"/>
  <text x="930" y="802" class="mul">1</text>
  <text x="355" y="1712" class="mul">0..*</text>

  <!-- 16. Program (1) - ExamSchedule (0..*) -->
  <path d="M 960,835 L 400,835 L 400,2040 L 450,2040" class="ln"/>
  <text x="930" y="827" class="mul">1</text>
  <text x="415" y="2032" class="mul">0..*</text>

  <!-- 17. Classes (0..*) - TeachingCourse (0..*) [Many-to-Many] -->
  <path d="M 1100,1180 L 1100,1310" class="ln"/>
  <text x="1108" y="1205" class="mul">0..*</text>
  <text x="1108" y="1300" class="mul">0..*</text>

  <!-- 18. TeachingCourse (0..*) - Course (1) -->
  <path d="M 920,1370 L 820,1370 L 820,820 L 730,820" class="ln"/>
  <text x="880" y="1362" class="mul">0..*</text>
  <text x="740" y="812" class="mul">1</text>

  <!-- 19. TeachingCourse (0..*) - Professor (1) -->
  <path d="M 920,1340 L 390,1340 L 390,220 L 450,220" class="ln"/>
  <text x="880" y="1332" class="mul">0..*</text>
  <text x="410" y="212" class="mul">1</text>

  <!-- 20. TeachingCourse (1) ◆- Topic (0..*) [Composition] -->
  <path d="M 920,1410 L 365,1410 L 365,1100 L 350,1100" class="ln" marker-start="url(#comp)"/>
  <text x="890" y="1402" class="mul">1</text>
  <text x="355" y="1092" class="mul">0..*</text>

  <!-- 21. TeachingCourse (1) ◆- CourseSchedule (0..*) [Composition] -->
  <path d="M 920,1450 L 730,1450" class="ln" marker-start="url(#comp)"/>
  <text x="890" y="1442" class="mul">1</text>
  <text x="740" y="1442" class="mul">0..*</text>

  <!-- 22. CourseSchedule (0..*) - Classes (1) -->
  <path d="M 590,1330 L 590,1230 L 1030,1230 L 1030,1180" class="ln"/>
  <text x="598" y="1315" class="mul">0..*</text>
  <text x="1038" y="1205" class="mul">1</text>

  <!-- 23. CourseSchedule (0..*) - Room (0..1) -->
  <path d="M 730,1490 L 1340,1490 L 1340,1610 L 1800,1610 L 1800,1010 L 1820,1010" class="ln"/>
  <text x="745" y="1482" class="mul">0..*</text>
  <text x="1780" y="1002" class="mul">0..1</text>

  <!-- 24. ExamSchedule (0..*) - Course (1) -->
  <path d="M 450,2090 L 370,2090 L 370,860 L 450,860" class="ln"/>
  <text x="415" y="2082" class="mul">0..*</text>
  <text x="415" y="852" class="mul">1</text>

  <!-- 25. ExamSchedule (0..*) - Room (0..*) [Many-to-Many] -->
  <path d="M 590,2180 L 590,2270 L 2150,2270 L 2150,1010 L 2120,1010" class="ln"/>
  <text x="598" y="2215" class="mul">0..*</text>
  <text x="2125" y="1002" class="mul">0..*</text>

  <!-- 26. ExamAttendance (0..*) - ExamSchedule (1) -->
  <path d="M 590,1865 L 590,1990" class="ln"/>
  <text x="598" y="1885" class="mul">0..*</text>
  <text x="598" y="1980" class="mul">1</text>

  <!-- 27. ExamAttendance (0..*) - Student (1) -->
  <path d="M 730,1750 L 840,1750 L 840,1890 L 1640,1890 L 1640,345" class="ln"/>
  <text x="740" y="1742" class="mul">0..*</text>
  <text x="1648" y="370" class="mul">1</text>

  <!-- 28. Grade (0..*) - Student (1) -->
  <path d="M 1520,1670 L 1520,345" class="ln"/>
  <text x="1528" y="1650" class="mul">0..*</text>
  <text x="1528" y="370" class="mul">1</text>

  <!-- 29. Grade (0..*) - TeachingCourse (0..1) -->
  <path d="M 1470,1740 L 1380,1740 L 1380,1480 L 1280,1480" class="ln"/>
  <text x="1430" y="1732" class="mul">0..*</text>
  <text x="1290" y="1472" class="mul">0..1</text>

  <!-- 30. Attendance (0..*) - Student (1) -->
  <path d="M 1240,2040 L 1680,2040 L 1680,345" class="ln"/>
  <text x="1255" y="2032" class="mul">0..*</text>
  <text x="1688" y="370" class="mul">1</text>

  <!-- 31. Attendance (0..*) - TeachingCourse (1) -->
  <path d="M 1100,1990 L 1100,1560" class="ln"/>
  <text x="1108" y="1970" class="mul">0..*</text>
  <text x="1108" y="1590" class="mul">1</text>

  <!-- 32. FailedCourse (0..*) - Student (1) -->
  <path d="M 1770,2040 L 1800,2040 L 1800,230 L 1770,230" class="ln"/>
  <text x="1775" y="2032" class="mul">0..*</text>
  <text x="1775" y="222" class="mul">1</text>

  <!-- 33. FailedCourse (0..*) - TeachingCourse (1) -->
  <path d="M 1470,2080 L 1360,2080 L 1360,1530 L 1280,1530" class="ln"/>
  <text x="1430" y="2072" class="mul">0..*</text>
  <text x="1290" y="1522" class="mul">1</text>

</svg>